# Blender 3.6.4
# www.blender.org
mtllib lopuh.mtl
o Cube.002
v -0.260578 -0.378963 -0.074269
v -0.260578 0.073833 -0.074269
v -0.326651 -0.399186 -0.449794
v -0.301018 0.072798 -0.385605
v 0.303026 -0.307762 -0.099232
v 0.311570 0.053896 -0.099232
v 0.332347 -0.373554 -0.449794
v 0.340891 0.055709 -0.385605
v -0.306514 -0.349487 -0.822167
v -0.280882 0.034380 -0.714087
v 0.267917 -0.323855 -0.817245
v 0.276462 0.017292 -0.709166
v -0.262221 -0.323580 -1.153992
v -0.236589 0.030759 -1.001619
v 0.267917 -0.297947 -1.153992
v 0.276462 0.013671 -1.001619
v -0.184797 -0.240613 0.284126
v -0.190976 0.240613 0.251044
v 0.366303 -0.169411 0.195560
v 0.368668 0.220677 0.162477
v -0.129772 -0.235204 0.539018
v -0.118985 0.162157 0.601143
v 0.367150 -0.164002 0.446567
v 0.386481 0.142220 0.508692
v -0.001470 -0.148807 0.872883
v 0.006126 0.167156 0.922442
v 0.397434 -0.148807 0.753545
v 0.405030 0.167156 0.803105
v 0.071312 -0.327970 1.109052
v 0.071312 0.104725 1.177713
v 0.509420 -0.327970 1.109052
v 0.509420 0.104725 1.177713
v 0.127537 -0.200357 1.519276
v 0.127537 0.086705 1.493113
v 0.463038 -0.200357 1.519276
v 0.463038 0.086705 1.493113
v 0.088032 -0.235107 1.706715
v 0.088032 0.101070 1.675380
v 0.453329 -0.235107 1.706715
v 0.453329 0.101070 1.675380
v 0.004376 -0.088506 2.305259
v 0.004376 0.194489 2.350165
v 0.290912 -0.088506 2.305259
v 0.290912 0.194489 2.350165
v 0.305126 -0.537288 4.270842
v 0.314191 -0.464022 4.316172
v 0.390074 -0.537288 4.253852
v 0.399140 -0.464022 4.299182
v 0.236300 -0.214116 3.133930
v 0.016352 -0.214116 3.177917
v 0.023246 0.007416 3.212388
v 0.243194 0.007416 3.168401
v 0.336092 -0.392608 3.750151
v 0.161233 -0.392608 3.785121
v 0.166714 -0.216490 3.812526
v 0.341573 -0.216490 3.777556
v 0.348163 -0.428208 4.037099
v 0.260451 -0.428208 4.054641
v 0.264386 -0.325588 4.074316
v 0.352097 -0.325588 4.056774
v 0.113653 -0.283381 3.521773
v 0.122901 -0.121776 3.568014
v 0.287977 -0.121776 3.535000
v 0.278729 -0.283381 3.488759
v -0.019441 -0.145781 2.906259
v -0.019441 0.088603 2.943451
v 0.217875 0.088603 2.943451
v 0.217875 -0.145781 2.906259
v 0.188465 -0.310858 3.251673
v 0.105791 -0.310858 3.268207
v 0.085318 -0.401745 3.178305
v 0.172788 -0.401745 3.160812
v 0.288813 -0.523688 3.463840
v 0.225280 -0.523688 3.498627
v 0.189247 -0.609125 3.437195
v 0.256466 -0.609125 3.400389
v 0.703723 -1.193730 4.060437
v 0.663328 -1.193730 4.101100
v 0.622191 -1.261338 4.062579
v 0.664930 -1.261338 4.019557
v 0.222495 0.310284 1.283454
v -0.016540 0.242402 1.257886
v 0.200172 0.230509 1.445573
v 0.017120 0.178526 1.425994
v -0.108098 0.378405 1.536256
v -0.206533 0.319565 1.519734
v -0.095887 0.317700 1.593672
v -0.171268 0.272641 1.581019
v -0.345780 0.462436 1.914241
v -0.432592 0.398186 1.872286
v -0.328878 0.390636 1.955348
v -0.395359 0.341434 1.923219
v -0.735044 0.574579 2.088450
v -0.781303 0.528103 2.036252
v -0.735217 0.522641 2.120600
v -0.770642 0.487050 2.080627
v -0.400639 -0.300062 -0.266714
v -0.342500 -0.268651 -0.097098
v -0.342500 -0.052473 -0.097098
v -0.390307 -0.051607 -0.237862
v -0.914158 -0.241077 0.057978
v -0.849662 -0.223607 0.134038
v -0.849662 -0.103375 0.134038
v -0.902958 -0.102894 0.070826
v -1.113774 -0.210366 0.653604
v -1.058610 -0.200059 0.674063
v -1.058610 -0.129123 0.674063
v -1.104299 -0.128839 0.656971
v -0.612347 -0.092267 -0.055447
v -0.612347 -0.233679 -0.055447
v -0.654847 -0.091701 -0.141189
v -0.663898 -0.254226 -0.158718
v -1.061954 -0.113518 0.322796
v -1.000951 -0.113918 0.349228
v -1.000951 -0.213857 0.349228
v -1.074618 -0.228378 0.317555
v 0.558501 -0.143495 0.614455
v 0.564308 0.070448 0.647904
v 0.735896 -0.350494 0.947125
v 0.739043 -0.255270 1.015633
v 0.736308 -0.351551 1.295367
v 0.738631 -0.266025 1.281590
v -0.000000 -0.511210 -0.471154
v -0.000000 0.164232 -0.385605
v -0.017225 -0.440671 -0.065390
v -0.017225 0.162419 -0.086750
v -0.022147 -0.461511 -0.841067
v -0.022147 0.125815 -0.711627
v -0.000000 -0.435604 -1.228504
v -0.000000 0.122194 -1.001619
v 0.052304 -0.302321 0.261203
v 0.028408 0.341011 0.206760
v 0.080240 -0.296912 0.514153
v 0.073310 0.262554 0.554918
v 0.197982 -0.210515 0.834575
v 0.187861 0.267553 0.862773
v 0.290366 -0.389678 1.130412
v 0.290366 0.193311 1.112750
v 0.295288 -0.262066 1.540636
v 0.283476 0.139857 1.493113
v 0.270680 -0.296815 1.728076
v 0.258869 0.154221 1.675380
v 0.135832 0.247641 2.350165
v 0.347600 -0.537288 4.262347
v 0.356666 -0.464022 4.307677
v 0.121408 0.060568 3.190394
v 0.126326 -0.214116 3.155924
v 0.242332 -0.163338 3.795041
v 0.248663 -0.392608 3.767636
v 0.296430 -0.272436 4.065545
v 0.304307 -0.428208 4.045870
v 0.196191 -0.283381 3.505266
v 0.193627 -0.068624 3.551507
v 0.099217 -0.207489 2.927620
v 0.087405 0.141754 2.943451
v 0.147128 -0.310858 3.259940
v 0.129053 -0.401745 3.169559
v 0.257047 -0.523688 3.481234
v 0.222857 -0.609125 3.418792
v 0.683526 -1.193730 4.080769
v 0.643561 -1.261338 4.041068
v 0.102977 0.323589 1.276576
v 0.108246 0.189115 1.480236
v -0.157315 0.396231 1.533900
v -0.133977 0.279768 1.631798
v -0.389186 0.477557 1.899170
v -0.362518 0.350632 1.983736
v -0.758173 0.551341 2.062351
v -0.752930 0.504846 2.100614
v 0.156825 -0.170150 2.306683
v -0.035344 -0.211831 2.526710
v 0.328971 -0.222695 2.501362
v 0.158486 -0.315638 2.528521
v -0.031818 -0.386288 2.626244
v 0.325592 -0.396945 2.601376
v 0.158339 -0.488127 2.628020
v 0.023246 0.102892 3.379471
v 0.243194 0.102892 3.335483
v 0.121408 0.156043 3.357477
v 0.023246 0.067088 3.630094
v 0.243194 0.067088 3.586106
v 0.121408 0.120240 3.608100
v 0.424560 -0.310842 0.551841
v 0.110562 -0.443752 0.617485
vn -0.7671 0.6281 0.1305
vn -0.7309 0.6748 -0.1023
vn -0.7560 0.5687 -0.3241
vn -0.3952 0.4713 0.7885
vn 0.0138 0.9983 -0.0574
vn 0.8199 0.5702 -0.0526
vn 0.8078 0.5777 -0.1174
vn -0.0102 0.9964 -0.0839
vn 0.8241 -0.5660 -0.0222
vn 0.8370 0.5107 -0.1965
vn 0.7923 -0.5919 0.1483
vn -0.5810 -0.7238 0.3722
vn -0.7932 -0.5414 0.2789
vn -0.7830 0.6198 0.0525
vn 0.0522 -0.9986 -0.0012
vn 0.0491 -0.9611 0.2717
vn -0.0666 0.9647 -0.2548
vn 0.7107 0.5510 -0.4375
vn 0.0087 0.8600 -0.5102
vn -0.7834 -0.6171 -0.0744
vn -0.7981 0.5939 -0.1014
vn -0.8554 -0.5006 -0.1332
vn 0.8350 -0.5381 -0.1147
vn 0.0176 -0.9925 -0.1207
vn 0.0377 -0.5924 -0.8048
vn 0.7137 -0.2499 -0.6544
vn -0.6345 0.5930 -0.4958
vn -0.6905 -0.2633 -0.6737
vn 0.1491 -0.9861 0.0730
vn 0.7960 -0.5984 -0.0906
vn 0.8592 -0.4799 -0.1775
vn 0.0556 -0.9902 0.1278
vn -0.0413 0.9896 -0.1375
vn 0.7529 0.6250 -0.2063
vn 0.8191 -0.5256 -0.2296
vn 0.0045 -0.9800 -0.1990
vn -0.7407 -0.6098 0.2819
vn -0.8292 0.4740 0.2963
vn -0.0521 0.9887 0.1405
vn 0.8702 0.4543 -0.1908
vn -0.0009 0.9933 0.1158
vn -0.7642 0.5529 0.3320
vn -0.9735 0.2200 -0.0630
vn 0.1466 0.9727 -0.1801
vn -0.8347 -0.5080 0.2127
vn 0.7868 0.6048 -0.1231
vn -0.0183 -0.9969 -0.0768
vn 0.7518 -0.6452 -0.1361
vn 0.8484 -0.5163 0.1167
vn 0.0172 -0.9986 0.0491
vn 0.8768 0.4803 -0.0243
vn -0.7204 -0.6933 -0.0217
vn -0.9225 0.2104 0.3237
vn -0.8320 -0.5547 0.0093
vn -0.7840 -0.6098 -0.1162
vn -0.8088 0.5532 -0.1998
vn -0.7741 0.0030 -0.6331
vn -0.0859 0.8525 -0.5156
vn 0.8401 0.5209 0.1510
vn -0.0133 0.9937 -0.1112
vn -0.8047 0.5912 -0.0541
vn -0.0338 0.9992 0.0205
vn 0.0493 0.8583 0.5108
vn 0.8134 0.5783 0.0633
vn 0.7977 -0.5918 0.1159
vn 0.0203 -0.9991 0.0383
vn -0.0564 -0.9577 -0.2822
vn 0.6896 -0.6684 -0.2787
vn 0.6136 -0.7828 0.1034
vn 0.0532 -0.9626 0.2658
vn 0.7699 0.6237 0.1354
vn 0.8140 -0.5778 0.0586
vn -0.0017 -0.9872 -0.1597
vn -0.8097 -0.5661 -0.1545
vn 0.1692 0.1555 0.9733
vn -0.5844 0.0946 0.8059
vn -0.5267 -0.7828 0.3314
vn -0.7833 0.4130 0.4646
vn -0.7437 -0.6684 0.0080
vn 0.0227 0.8796 0.4751
vn 0.8716 0.4663 0.1512
vn 0.8282 0.1211 0.5471
vn 0.8781 -0.4617 -0.1255
vn 0.8007 0.5777 0.1585
vn 0.7903 0.6121 -0.0273
vn 0.9644 -0.2641 -0.0139
vn -0.0468 0.9682 0.2459
vn -0.8355 0.5229 0.1687
vn -0.7991 0.5761 0.1715
vn -0.0362 0.9988 0.0335
vn -0.8921 -0.4443 -0.0818
vn -0.9252 -0.2689 0.2679
vn -0.0396 -0.8956 -0.4430
vn 0.5527 -0.6168 -0.5605
vn -0.1286 -0.7792 -0.6134
vn 0.6708 -0.6711 -0.3156
vn 0.8617 0.5060 0.0388
vn 0.8908 0.4518 0.0481
vn 0.6582 -0.7027 -0.2701
vn 0.0183 0.9357 0.3523
vn -0.8120 0.4619 0.3568
vn -0.8396 0.3947 0.3732
vn 0.0091 0.9233 0.3839
vn -0.7406 -0.6711 -0.0333
vn -0.7115 -0.7027 0.0038
vn -0.0560 -0.9583 -0.2802
vn -0.0497 -0.9674 -0.2485
vn 0.1752 -0.4491 0.8761
vn 0.4027 -0.5507 -0.7312
vn -0.2957 -0.7757 -0.5576
vn -0.7404 -0.6375 -0.2129
vn -0.5473 0.4502 0.7055
vn 0.7712 0.5106 0.3802
vn 0.1747 0.7483 0.6399
vn -0.4056 0.5189 0.7525
vn -0.8417 -0.5398 -0.0147
vn -0.3846 -0.8297 0.4046
vn 0.0522 0.0346 0.9980
vn 0.3077 0.7509 0.5844
vn 0.8297 0.5469 0.1121
vn 0.1138 -0.9935 0.0078
vn 0.5048 -0.7985 -0.3279
vn 0.9538 0.0779 0.2901
vn 0.6530 0.0690 0.7542
vn 0.4190 0.6692 0.6137
vn 0.4392 0.8971 -0.0475
vn 0.4381 0.8761 0.2014
vn 0.6783 0.3150 0.6639
vn -0.5706 -0.8023 0.1750
vn 0.0892 -0.0753 0.9932
vn 0.3681 -0.7407 0.5620
vn 0.7013 0.1202 0.7026
vn 0.2298 -0.6401 0.7331
vn -0.4146 -0.9100 -0.0069
vn -0.8206 -0.1104 -0.5607
vn -0.1896 0.9106 -0.3672
vn -0.6886 -0.1657 -0.7060
vn -0.3325 -0.9430 0.0161
vn -0.7712 -0.6078 0.1893
vn -0.8593 0.0686 -0.5068
vn -0.1031 0.8771 -0.4692
vn 0.5383 0.7750 0.3310
vn -0.6604 0.7461 -0.0844
vn -0.5690 -0.1704 0.8045
vn -0.1014 0.9036 0.4163
vn -0.0479 0.2949 0.9543
vn 0.2332 -0.6867 0.6885
vn 0.1911 0.7524 0.6304
vn 0.4705 0.7389 0.4824
vn 0.5231 -0.6726 0.5234
vn -0.3258 -0.4706 0.8200
vn -0.8107 -0.5231 -0.2630
vn 0.5869 0.7587 0.2827
vn -0.6756 0.7051 -0.2154
vn -0.6609 0.6033 0.4463
vn 0.4086 0.5533 0.7259
vn -0.4100 0.6986 -0.5864
vn -0.5419 0.7180 -0.4369
vn -0.4451 -0.6614 -0.6037
vn -0.5692 -0.6881 -0.4500
vn 0.4430 -0.5025 0.7425
vn -0.6741 -0.6035 0.4259
vn -0.7067 -0.6736 -0.2164
vn 0.6556 -0.6909 0.3045
vn 0.7658 0.1078 -0.6340
vn 0.8083 0.1069 -0.5790
vn 0.9848 0.0272 -0.1714
vn 0.9670 0.0536 -0.2491
vn 0.9995 -0.0301 -0.0006
vn -0.0485 -0.6325 -0.7731
vn -0.3526 -0.6699 -0.6534
vn 0.2975 -0.6756 -0.6746
vn -0.0668 -0.4985 -0.8643
vn -0.2511 -0.4835 -0.8386
vn 0.1333 -0.4953 -0.8584
vn -0.4957 0.8569 -0.1415
vn -0.0629 0.9829 -0.1732
vn 0.3552 0.9072 -0.2254
vn -0.4503 0.8839 0.1263
vn -0.0723 0.9874 0.1411
vn 0.4161 0.9002 0.1286
vn 0.2873 -0.8732 -0.3936
vt 0.996094 0.842928
vt 0.976023 0.914983
vt 0.937181 0.877227
vt 0.957358 0.844292
vt 0.191201 0.255591
vt 0.107722 0.270332
vt 0.103967 0.186303
vt 0.184859 0.173227
vt 0.003906 0.257685
vt 0.119031 0.343681
vt 0.025832 0.349961
vt 0.277070 0.311613
vt 0.381826 0.287126
vt 0.384299 0.381277
vt 0.272884 0.397847
vt 0.443412 0.190175
vt 0.530837 0.192740
vt 0.524493 0.292403
vt 0.441383 0.290389
vt 0.263901 0.240808
vt 0.210994 0.325584
vt 0.098914 0.111968
vt 0.173630 0.102116
vt 0.364825 0.205163
vt 0.253527 0.162135
vt 0.344024 0.118964
vt 0.016676 0.162402
vt 0.420140 0.099505
vt 0.365550 0.778707
vt 0.216272 0.788217
vt 0.236592 0.717296
vt 0.322741 0.714612
vt 0.240400 0.092743
vt 0.328557 0.038686
vt 0.019603 0.077612
vt 0.399109 0.003906
vt 0.447373 0.380598
vt 0.534599 0.380307
vt 0.520752 0.445965
vt 0.442338 0.446991
vt 0.221569 0.405271
vt 0.146321 0.413736
vt 0.061938 0.428764
vt 0.507659 0.523060
vt 0.449627 0.535577
vt 0.391316 0.445780
vt 0.297425 0.476850
vt 0.241365 0.485319
vt 0.156524 0.501646
vt 0.076365 0.499515
vt 0.246978 0.562460
vt 0.303421 0.559828
vt 0.314309 0.623065
vt 0.248351 0.629306
vt 0.387499 0.538816
vt 0.184127 0.571800
vt 0.103590 0.579468
vt 0.464845 0.622922
vt 0.519814 0.629643
vt 0.482095 0.733983
vt 0.438181 0.724038
vt 0.198951 0.669072
vt 0.088890 0.683386
vt 0.415559 0.606704
vt 0.686727 0.034555
vt 0.764601 0.027952
vt 0.775898 0.073968
vt 0.692813 0.080453
vt 0.393513 0.710328
vt 0.320379 0.706197
vt 0.570534 0.920561
vt 0.522877 0.881050
vt 0.541332 0.838697
vt 0.573768 0.851864
vt 0.217380 0.746450
vt 0.150296 0.773304
vt 0.647630 0.081248
vt 0.709842 0.246127
vt 0.675416 0.246664
vt 0.642283 0.035332
vt 0.520702 0.047844
vt 0.592724 0.035920
vt 0.596997 0.081119
vt 0.514268 0.095885
vt 0.813996 0.020815
vt 0.857330 0.003906
vt 0.867285 0.052843
vt 0.822062 0.067770
vt 0.762888 0.701020
vt 0.773813 0.703893
vt 0.759864 0.766037
vt 0.749278 0.763784
vt 0.635969 0.248133
vt 0.566102 0.252598
vt 0.820445 0.218023
vt 0.777831 0.228706
vt 0.731358 0.770602
vt 0.711583 0.758724
vt 0.721358 0.754714
vt 0.738708 0.761711
vt 0.725247 0.690656
vt 0.751809 0.697984
vt 0.710994 0.683953
vt 0.668756 0.700922
vt 0.693155 0.691170
vt 0.700620 0.759389
vt 0.678813 0.760759
vt 0.604749 0.408405
vt 0.663051 0.395537
vt 0.668255 0.455755
vt 0.613477 0.469589
vt 0.697289 0.387652
vt 0.727281 0.387057
vt 0.727232 0.455023
vt 0.700985 0.448030
vt 0.784935 0.385424
vt 0.782661 0.461095
vt 0.911401 0.464006
vt 0.879930 0.470167
vt 0.911900 0.384673
vt 0.923186 0.386432
vt 0.635225 0.559254
vt 0.677224 0.553634
vt 0.679177 0.618521
vt 0.637466 0.632531
vt 0.705766 0.547674
vt 0.728764 0.551722
vt 0.728149 0.616271
vt 0.706136 0.612033
vt 0.772541 0.553965
vt 0.768172 0.626865
vt 0.794177 0.556843
vt 0.815303 0.559886
vt 0.809793 0.636041
vt 0.788443 0.631375
vt 0.809811 0.466032
vt 0.837358 0.470534
vt 0.699627 0.458335
vt 0.820985 0.228250
vt 0.818580 0.388849
vt 0.920206 0.301413
vt 0.929671 0.302077
vt 0.972405 0.426731
vt 0.936618 0.484933
vt 0.934474 0.388311
vt 0.967348 0.385700
vt 0.870856 0.414393
vt 0.878686 0.376727
vt 0.996027 0.412618
vt 0.977199 0.381740
vt 0.966650 0.303862
vt 0.939123 0.302709
vt 0.953198 0.054052
vt 0.975001 0.055791
vt 0.975609 0.303484
vt 0.892675 0.299052
vt 0.938403 0.047762
vt 0.938217 0.055308
vt 0.916376 0.054371
vt 0.916542 0.047238
vt 0.945701 0.054686
vt 0.982057 0.056866
vt 0.631852 0.850169
vt 0.593724 0.872423
vt 0.587608 0.770888
vt 0.608735 0.765597
vt 0.466026 0.827485
vt 0.503565 0.814026
vt 0.680187 0.911023
vt 0.618188 0.958434
vt 0.662668 0.867323
vt 0.642553 0.825970
vt 0.620656 0.754389
vt 0.618157 0.659425
vt 0.630821 0.652115
vt 0.535315 0.752771
vt 0.554396 0.759933
vt 0.577494 0.762245
vt 0.563486 0.650535
vt 0.542322 0.651476
vt 0.558989 0.547329
vt 0.573994 0.548203
vt 0.587817 0.650976
vt 0.597358 0.658392
vt 0.572708 0.537757
vt 0.557892 0.539397
vt 0.583873 0.549588
vt 0.593927 0.550428
vt 0.609014 0.549749
vt 0.616898 0.548206
vt 0.836138 0.826685
vt 0.802436 0.813212
vt 0.806564 0.738878
vt 0.836573 0.743213
vt 0.875810 0.958396
vt 0.810364 0.924669
vt 0.814845 0.896012
vt 0.869627 0.908009
vt 0.737888 0.851570
vt 0.774244 0.859368
vt 0.904460 0.669141
vt 0.888207 0.671854
vt 0.881295 0.587312
vt 0.893519 0.583709
vt 0.921898 0.810788
vt 0.901861 0.822544
vt 0.893715 0.744029
vt 0.913250 0.737414
vt 0.864259 0.831442
vt 0.860297 0.747632
vt 0.844623 0.585725
vt 0.845727 0.567488
vt 0.858262 0.568142
vt 0.859591 0.589155
vt 0.859444 0.673355
vt 0.839856 0.672118
vt 0.814418 0.669664
vt 0.826439 0.584114
vt 0.080976 0.544544
vt 0.080976 0.603407
vt 0.028131 0.613544
vt 0.003906 0.554913
vt 0.038636 0.725805
vt 0.010320 0.718887
vt 0.060893 0.788065
vt 0.042468 0.799195
vt 0.526471 0.645699
vt 0.551052 0.546298
vt 0.595081 0.539954
vt 0.609968 0.541811
vt 0.479194 0.802392
vt 0.521498 0.745084
vt 0.435977 0.804524
vt 0.883747 0.298097
vt 0.909431 0.052735
vt 0.953949 0.046537
vt 0.975718 0.048695
vt 0.868491 0.374514
vt 0.849453 0.401832
vt 0.701686 0.780942
vt 0.712517 0.780426
vt 0.502171 0.090333
vt 0.480611 0.004227
vt 0.337066 0.846148
vt 0.241044 0.846148
vt 0.182770 0.785939
vt 0.172946 0.827587
vt 0.106282 0.832071
vt 0.120047 0.778459
vt 0.860410 0.215855
vt 0.859996 0.224213
vt 0.851366 0.379864
vt 0.187529 0.863597
vt 0.129520 0.875687
vt 0.056264 0.836344
vt 0.072259 0.786577
vt 0.081096 0.875687
vt 0.945997 0.553664
vt 0.897304 0.551122
vt 0.900255 0.523894
vt 0.946275 0.525107
vt 0.957439 0.493334
vt 0.908293 0.492327
vt 0.833306 0.553664
vt 0.839227 0.525219
vt 0.843007 0.490634
vt 0.152576 0.003906
vt 0.167883 0.088790
vt 0.071570 0.088790
vt 0.056264 0.003906
s 1
f 2/1/1 4/2/2 100/3/3 99/4/4
f 124/5/5 8/6/6 12/7/7 128/8/8
f 7/9/9 8/6/6 6/10/10 5/11/11
f 2/12/1 1/13/12 17/14/13 18/15/14
f 123/16/15 7/17/9 5/18/11 125/19/16
f 124/5/5 4/20/2 2/12/1 126/21/17
f 128/8/8 12/7/7 16/22/18 130/23/19
f 3/24/20 4/20/2 10/25/21 9/26/22
f 8/6/6 7/9/9 11/27/23 12/7/7
f 123/16/15 3/24/20 9/26/22 127/28/24
f 129/29/25 130/30/19 16/31/18 15/32/26
f 9/26/22 10/25/21 14/33/27 13/34/28
f 12/7/7 11/27/23 15/35/26 16/22/18
f 127/28/24 9/26/22 13/34/28 129/36/25
f 131/37/29 19/38/30 23/39/31 133/40/32
f 125/19/16 5/18/11 19/38/30 131/37/29
f 126/21/17 2/12/1 18/15/14 132/41/33
f 5/11/11 6/10/10 20/42/34 19/43/30
f 133/40/32 23/39/31 27/44/35 135/45/36
f 18/15/14 17/14/13 21/46/37 22/47/38
f 132/41/33 18/15/14 22/47/38 134/48/39
f 19/43/30 20/42/34 24/49/40 23/50/31
f 136/51/41 26/52/42 30/53/43 138/54/44
f 22/47/38 21/46/37 25/55/45 26/52/42
f 134/48/39 22/47/38 26/52/42 136/51/41
f 23/50/31 24/49/40 28/56/46 27/57/35
f 137/58/47 31/59/48 35/60/49 139/61/50
f 27/57/35 28/56/46 32/62/51 31/63/48
f 135/45/36 27/44/35 31/59/48 137/58/47
f 26/52/42 25/55/45 29/64/52 30/53/43
f 34/65/53 33/66/54 37/67/55 38/68/56
f 30/53/43 29/64/52 33/69/54 34/70/53
f 138/71/44 30/72/43 82/73/57 162/74/58
f 31/63/48 32/62/51 36/75/59 35/76/49
f 142/77/60 38/68/56 42/78/61 143/79/62
f 140/80/63 34/65/53 38/68/56 142/77/60
f 35/81/49 36/82/59 40/83/64 39/84/65
f 139/85/50 35/86/49 39/87/65 141/88/66
f 151/89/67 57/90/68 47/91/69 144/92/70
f 39/84/65 40/83/64 44/93/71 43/94/72
f 37/67/55 141/88/66 170/95/73 41/96/74
f 38/68/56 37/67/55 41/96/74 42/78/61
f 144/97/70 145/98/75 46/99/76 45/100/77
f 59/101/78 58/102/79 45/100/77 46/99/76
f 150/103/80 59/101/78 46/99/76 145/98/75
f 57/104/68 60/105/81 48/106/82 47/107/69
f 68/108/83 67/109/84 52/110/85 49/111/86
f 155/112/87 66/113/88 51/114/89 146/115/90
f 66/113/88 65/116/91 50/117/92 51/114/89
f 154/118/93 68/119/83 72/120/94 157/121/95
f 64/122/96 63/123/97 56/124/98 53/125/99
f 153/126/100 62/127/101 55/128/102 148/129/103
f 62/127/101 61/130/104 54/131/105 55/128/102
f 152/132/106 64/133/96 53/134/99 149/135/107
f 53/125/99 56/124/98 60/105/81 57/104/68
f 148/129/103 55/128/102 59/101/78 150/103/80
f 55/128/102 54/131/105 58/102/79 59/101/78
f 149/135/107 53/134/99 57/90/68 151/89/67
f 147/136/108 49/137/86 64/133/96 152/132/106
f 51/114/89 50/117/92 61/130/104 62/127/101
f 146/138/90 51/114/89 62/127/101 153/126/100
f 49/111/86 52/110/85 63/123/97 64/122/96
f 41/96/74 170/139/73 154/140/93 65/116/91
f 42/78/61 41/96/74 65/116/91 66/113/88
f 143/79/62 42/78/61 66/113/88 155/112/87
f 43/94/72 44/93/71 67/109/84 68/108/83
f 157/121/95 72/120/94 76/141/109 159/142/110
f 50/143/92 65/144/91 71/145/111 70/146/112
f 68/119/83 49/147/86 69/148/113 72/120/94
f 147/149/108 50/143/92 70/146/112 156/150/114
f 74/151/115 75/152/116 79/153/117 78/154/118
f 156/150/114 70/146/112 74/151/115 158/155/119
f 70/146/112 71/145/111 75/152/116 74/151/115
f 72/120/94 69/148/113 73/156/120 76/141/109
f 161/157/121 80/158/122 77/159/123 160/160/124
f 76/141/109 73/156/120 77/159/123 80/158/122
f 159/142/110 76/141/109 80/158/122 161/161/121
f 158/155/119 74/151/115 78/154/118 160/162/124
f 83/163/125 81/164/126 85/165/127 87/166/128
f 30/72/43 34/167/53 84/168/129 82/73/57
f 36/169/59 32/170/51 81/164/126 83/163/125
f 140/171/63 36/169/59 83/163/125 163/172/130
f 165/173/131 87/166/128 91/174/132 167/175/133
f 163/172/130 83/163/125 87/166/128 165/173/131
f 82/73/57 84/168/129 88/176/134 86/177/135
f 162/74/58 82/73/57 86/177/135 164/178/136
f 90/179/137 92/180/138 96/181/139 94/182/140
f 86/177/135 88/176/134 92/180/138 90/179/137
f 164/178/136 86/177/135 90/179/137 166/183/141
f 87/166/128 85/165/127 89/184/142 91/174/132
f 168/185/143 94/182/140 96/181/139 169/186/144
f 166/183/141 90/179/137 94/182/140 168/187/143
f 91/174/132 89/184/142 93/188/145 95/189/146
f 167/175/133 91/174/132 95/189/146 169/190/144
f 110/191/147 109/192/148 103/193/149 102/194/150
f 3/195/20 1/196/12 98/197/151 97/198/152
f 4/2/2 3/195/20 97/198/152 100/3/3
f 1/196/12 2/199/1 99/200/4 98/197/151
f 114/201/153 113/202/154 108/203/155 107/204/156
f 109/205/148 111/206/157 104/207/158 103/208/149
f 112/209/159 110/191/147 102/194/150 101/210/160
f 111/206/157 112/209/159 101/210/160 104/207/158
f 106/211/161 107/212/156 108/213/155 105/214/162
f 116/215/163 115/216/164 106/211/161 105/214/162
f 113/202/154 116/215/163 105/214/162 108/203/155
f 115/216/164 114/217/153 107/218/156 106/211/161
f 100/3/3 97/198/152 112/209/159 111/206/157
f 97/198/152 98/197/151 110/191/147 112/209/159
f 99/4/4 100/3/3 111/206/157 109/205/148
f 98/197/151 99/200/4 109/192/148 110/191/147
f 102/194/150 103/193/149 114/217/153 115/216/164
f 104/207/158 101/210/160 116/215/163 113/202/154
f 101/210/160 102/194/150 115/216/164 116/215/163
f 103/208/149 104/207/158 113/202/154 114/201/153
f 24/219/40 118/220/165 117/221/166 23/222/31
f 118/220/165 120/223/167 119/224/168 117/221/166
f 120/223/167 122/225/169 121/226/169 119/224/168
f 92/180/138 167/227/133 169/228/144 96/181/139
f 89/184/142 166/183/141 168/187/143 93/188/145
f 93/188/145 168/229/143 169/230/144 95/189/146
f 85/165/127 164/178/136 166/183/141 89/184/142
f 81/164/126 162/74/58 164/178/136 85/165/127
f 84/168/129 163/231/130 165/232/131 88/176/134
f 88/176/134 165/232/131 167/227/133 92/180/138
f 34/167/53 140/233/63 163/231/130 84/168/129
f 73/156/120 158/234/119 160/235/124 77/159/123
f 75/152/116 159/142/110 161/161/121 79/153/117
f 79/153/117 161/236/121 160/237/124 78/154/118
f 69/148/113 156/238/114 158/234/119 73/156/120
f 49/147/86 147/239/108 156/238/114 69/148/113
f 71/145/111 157/121/95 159/142/110 75/152/116
f 44/93/71 143/79/62 155/112/87 67/109/84
f 52/110/85 146/138/90 153/126/100 63/123/97
f 50/117/92 147/136/108 152/132/106 61/130/104
f 54/131/105 149/135/107 151/89/67 58/102/79
f 56/124/98 148/129/103 150/103/80 60/105/81
f 61/130/104 152/132/106 149/135/107 54/131/105
f 63/123/97 153/126/100 148/129/103 56/124/98
f 65/144/91 154/118/93 157/121/95 71/145/111
f 67/109/84 155/112/87 146/115/90 52/110/85
f 60/105/81 150/103/80 145/98/75 48/106/82
f 47/240/69 48/106/82 145/98/75 144/241/70
f 58/102/79 151/89/67 144/92/70 45/100/77
f 33/66/54 139/85/50 141/88/66 37/67/55
f 36/82/59 140/80/63 142/77/60 40/83/64
f 40/83/64 142/77/60 143/79/62 44/93/71
f 32/170/51 138/71/44 162/74/58 81/164/126
f 25/55/45 135/45/36 137/58/47 29/64/52
f 29/64/52 137/58/47 139/61/50 33/69/54
f 24/49/40 134/48/39 136/51/41 28/56/46
f 28/56/46 136/51/41 138/54/44 32/62/51
f 20/42/34 132/41/33 134/48/39 24/49/40
f 21/46/37 133/40/32 135/45/36 25/55/45
f 6/10/10 126/21/17 132/41/33 20/42/34
f 1/13/12 125/19/16 131/37/29 17/14/13
f 17/14/13 131/37/29 133/40/32 21/46/37
f 11/242/23 127/28/24 129/36/25 15/243/26
f 13/244/28 14/245/27 130/30/19 129/29/25
f 7/17/9 123/16/15 127/28/24 11/242/23
f 10/25/21 128/8/8 130/23/19 14/33/27
f 8/6/6 124/5/5 126/21/17 6/10/10
f 3/24/20 123/16/15 125/19/16 1/13/12
f 4/20/2 124/5/5 128/8/8 10/25/21
f 41/246/74 170/247/73 173/248/170 171/249/171
f 170/95/73 141/88/66 39/87/65 43/250/72
f 154/140/93 170/139/73 43/251/72 68/252/83
f 43/253/72 172/254/172 173/248/170 170/247/73
f 171/249/171 173/248/170 176/255/173 174/256/174
f 172/254/172 175/257/175 176/255/173 173/248/170
f 51/258/89 177/259/176 179/260/177 146/261/90
f 52/262/85 146/261/90 179/260/177 178/263/178
f 177/259/176 180/264/179 182/265/180 179/260/177
f 178/263/178 179/260/177 182/265/180 181/266/181
f 131/267/29 19/268/30 183/269/182 184/270/182
