# Blender 3.6.4
# www.blender.org
mtllib shipovnik.mtl
o Cube.006
v -0.124924 -0.118926 0.916775
v -0.125998 0.156851 0.908758
v 0.095635 -0.117821 0.907815
v 0.096507 0.157968 0.899662
v -0.165063 0.016938 0.910878
v 0.171348 -0.012953 0.895069
v -0.018179 -0.154126 0.914817
v -0.027027 0.188454 0.909930
v -0.065571 -0.041606 1.081328
v -0.066352 0.096419 1.061466
v 0.062690 -0.043465 1.067774
v 0.069015 0.102206 1.040746
v -0.093411 0.027114 1.074761
v 0.090501 -0.001876 1.055326
v 0.012146 -0.069562 1.087038
v 0.000523 0.124159 1.054778
v 0.188520 0.035369 0.753066
v 0.137382 -0.090695 0.752876
v -0.149485 0.035243 0.754529
v -0.099593 0.164042 0.753410
v 0.138614 0.164131 0.752380
v 0.022489 0.205329 0.761171
v -0.098345 -0.090782 0.753896
v 0.022503 -0.129544 0.762454
v -0.162774 -0.016255 0.920344
v 0.100881 0.049412 1.038286
v -0.091122 0.012234 1.093384
v -0.029624 -0.155080 0.918633
v 0.014201 0.114362 1.051643
v -0.005976 -0.073377 1.091807
v -0.096001 -0.089355 0.656952
v -0.097273 0.171988 0.655568
v -0.471657 -0.500064 -0.665519
v -0.471657 0.523312 -0.677762
v 0.145747 -0.089355 0.656952
v 0.147018 0.171988 0.655568
v 0.521277 -0.500064 -0.665519
v 0.521277 0.523312 -0.677762
v -0.501680 -0.494825 -0.320142
v -0.148446 0.039917 0.656759
v -0.501680 0.555776 -0.321214
v -0.590085 0.024711 -0.862418
v 0.024810 -0.621018 -0.831762
v 0.024810 0.641016 -0.826535
v 0.639705 0.024711 -0.862418
v 0.551301 -0.494825 -0.320142
v 0.551301 0.555776 -0.321214
v 0.198192 0.039917 0.656759
v 0.027892 -0.129106 0.663931
v 0.027892 0.214329 0.661634
v -0.700281 0.030475 -0.320678
v 0.024810 0.021301 -1.192963
v 0.749901 0.030475 -0.320678
v 0.024810 -0.692977 -0.319940
v 0.024810 0.753928 -0.321416
v -0.224105 -0.210182 0.424929
v -0.273266 0.039796 0.414767
v -0.224105 0.283455 0.439947
v 0.273221 0.283455 0.439947
v 0.322382 0.039796 0.414767
v 0.273221 -0.210182 0.424929
v 0.022297 -0.257603 0.453164
v 0.022297 0.332674 0.468390
v -0.106116 -0.099624 0.776364
v -0.107493 0.183453 0.774319
v 0.155736 -0.099624 0.776364
v 0.157113 0.183453 0.774319
v -0.162923 0.040399 0.776079
v 0.212543 0.040399 0.776079
v 0.028080 -0.142680 0.786681
v 0.028080 0.229315 0.783286
v -0.395918 -0.385593 0.139878
v -0.395918 0.452294 0.148219
v 0.445390 -0.385593 0.139878
v 0.445390 0.452294 0.148219
v -0.528149 0.035222 0.133580
v 0.577622 0.035222 0.133580
v 0.023397 -0.516562 0.156711
v 0.023397 0.584327 0.164965
v -0.096253 -0.086994 0.636006
v -0.139294 0.039963 0.634184
v -0.097103 0.167769 0.637176
v 0.146852 0.167769 0.637176
v 0.189043 0.039963 0.634184
v 0.146002 -0.086994 0.636006
v 0.026527 -0.121263 0.646950
v 0.026527 0.204061 0.647321
v 0.028668 -0.186915 0.780094
v 0.028400 -0.167381 0.710092
v 0.172701 -0.118710 0.701546
v 0.186947 -0.133531 0.770720
v 0.028668 0.274315 0.777009
v 0.028400 0.253120 0.707280
v -0.124851 0.201277 0.699852
v -0.139426 0.217451 0.768862
v -0.123294 -0.118710 0.701546
v -0.187508 0.039570 0.701310
v 0.174258 0.201277 0.699852
v 0.236915 0.039570 0.701310
v -0.137719 -0.133531 0.770720
v -0.208153 0.040081 0.770462
v 0.188654 0.217451 0.768862
v 0.257381 0.040081 0.770462
v 0.188520 0.035369 0.653953
v 0.137382 -0.090695 0.653763
v -0.149485 0.035243 0.655416
v -0.099593 0.164042 0.654297
v 0.138614 0.164131 0.653267
v 0.022489 0.205329 0.662058
v -0.098345 -0.090782 0.654783
v 0.022503 -0.129544 0.663341
v 0.022496 0.036909 0.604603
vn 0.9811 0.0328 0.1908
vn 0.9597 -0.1301 0.2491
vn 0.5964 -0.7785 0.1954
vn 0.6999 -0.7142 0.0011
vn -0.9882 0.0239 -0.1516
vn -0.9350 0.3177 0.1576
vn -0.7090 0.6791 0.1899
vn -0.6791 0.7320 -0.0547
vn 0.6958 0.6785 0.2354
vn 0.0514 0.9935 0.1017
vn -0.0665 0.9659 0.2504
vn 0.6083 0.7384 0.2910
vn -0.6788 -0.6957 -0.2349
vn 0.0534 -0.9874 -0.1489
vn -0.3687 -0.9241 0.1000
vn -0.6931 -0.7115 0.1156
vn -0.9173 -0.3832 0.1082
vn 0.3563 -0.9171 0.1790
vn -0.6491 0.6062 0.4596
vn -0.2893 0.8496 0.4409
vn 0.5861 -0.6941 0.4180
vn 0.3805 -0.8331 0.4016
vn 0.7781 -0.4804 0.4047
vn -0.8625 0.3025 0.4057
vn 0.2577 0.8828 0.3928
vn 0.6029 0.7058 0.3720
vn -0.3858 -0.7945 0.4689
vn -0.6432 -0.6020 0.4732
vn 0.8675 0.4046 0.2895
vn -0.8185 -0.3750 0.4352
vn -0.6232 -0.6073 0.4928
vn -0.8818 -0.0029 0.4716
vn -0.9968 0.0020 0.0799
vn -0.7104 -0.6964 0.1021
vn -0.6300 0.6091 0.4818
vn -0.7055 0.7052 0.0702
vn -0.6335 0.6441 -0.4287
vn -0.7829 0.0050 -0.6221
vn -0.6386 -0.6605 -0.3950
vn -0.0000 0.0041 -1.0000
vn -0.0000 -0.8136 -0.5814
vn -0.0000 0.7976 -0.6032
vn 0.6335 0.6441 -0.4287
vn 0.7829 0.0050 -0.6221
vn 0.6386 -0.6605 -0.3950
vn 0.9968 0.0020 0.0801
vn 0.7102 -0.6965 0.1024
vn 0.7054 0.7053 0.0705
vn 0.8816 -0.0029 0.4720
vn 0.6293 0.6092 0.4825
vn 0.5649 0.5071 0.6510
vn 0.7988 -0.0092 0.6016
vn 0.6225 -0.6075 0.4935
vn 0.5546 -0.5122 0.6557
vn -0.0073 0.5064 0.8623
vn 0.2977 0.3669 0.8813
vn -0.6109 -0.6471 0.4562
vn 0.0074 -0.8568 0.5155
vn -0.5629 0.6248 -0.5411
vn -0.8720 -0.0085 -0.4895
vn -0.8862 -0.0103 -0.4633
vn -0.6030 0.6392 -0.4773
vn -0.4576 0.0036 0.8892
vn -0.2915 0.3453 0.8920
vn 0.6152 -0.6424 0.4569
vn 0.8770 -0.0040 0.4804
vn -0.5733 -0.6533 -0.4945
vn -0.5921 -0.6559 -0.4682
vn 0.0001 -0.9933 0.1158
vn -0.0009 -0.8757 0.4829
vn -0.0023 -0.7853 0.6191
vn -0.5554 -0.5111 0.6560
vn 0.0001 0.9979 0.0641
vn -0.0009 0.8855 0.4645
vn -0.5656 0.5058 0.6513
vn -0.0025 0.7896 0.6136
vn -0.6909 -0.6756 0.2574
vn -0.9805 -0.0108 0.1963
vn -0.7985 -0.0092 0.6020
vn -0.7159 0.6647 0.2136
vn 0.7188 0.6636 0.2074
vn 0.9807 -0.0108 0.1952
vn 0.6938 -0.6749 0.2514
vn -0.0028 -0.9850 0.1726
vn -0.0032 0.9957 0.0931
vn -0.2811 -0.3236 0.9035
vn 0.6233 0.6382 0.4518
vn 0.0099 0.8341 -0.5515
vn 0.0064 0.8892 -0.4575
vn 0.4912 0.0033 0.8710
vn 0.2867 -0.3443 0.8940
vn -0.6190 0.6431 0.4509
vn -0.8773 -0.0040 0.4798
vn 0.5670 0.6191 -0.5433
vn 0.6080 0.6355 -0.4759
vn 0.5775 -0.6481 -0.4965
vn 0.0099 -0.8739 -0.4860
vn 0.8732 -0.0085 -0.4872
vn 0.5970 -0.6523 -0.4669
vn 0.8876 -0.0103 -0.4605
vn 0.0061 -0.8971 -0.4418
vn 0.0075 0.8643 0.5029
vn -0.0068 -0.4706 0.8823
vn -0.5303 0.5966 0.6023
vn 0.0017 0.8062 0.5917
vn 0.5532 -0.5737 0.6040
vn 0.0022 -0.7760 0.6307
vn 0.5477 0.6051 0.5779
vn 0.7883 0.0156 0.6151
vn -0.5344 -0.5651 0.6285
vn -0.7605 0.0152 0.6491
vn 0.0006 0.0031 1.0000
vt 0.220380 0.849259
vt 0.156251 0.823749
vt 0.153772 0.766612
vt 0.222480 0.787106
vt 0.469639 0.722382
vt 0.469639 0.797821
vt 0.408483 0.783353
vt 0.403650 0.715431
vt 0.212594 0.911756
vt 0.190034 0.963337
vt 0.118858 0.956762
vt 0.144644 0.906150
vt 0.285482 0.716366
vt 0.343964 0.714576
vt 0.331906 0.790261
vt 0.287367 0.788020
vt 0.222977 0.714576
vt 0.240032 0.792798
vt 0.363297 0.784379
vt 0.344461 0.714576
vt 0.145167 0.714576
vt 0.216287 0.731065
vt 0.401717 0.858488
vt 0.368297 0.858147
vt 0.075418 0.775575
vt 0.065221 0.750471
vt 0.077856 0.799286
vt 0.433741 0.872541
vt 0.065221 0.904468
vt 0.080147 0.883060
vt 0.314463 0.878086
vt 0.283683 0.870432
vt 0.084880 0.855291
vt 0.256836 0.880113
vt 0.117066 0.349515
vt 0.206973 0.308318
vt 0.249714 0.395710
vt 0.158594 0.446266
vt 0.291127 0.258827
vt 0.342813 0.348204
vt 0.370145 0.415461
vt 0.293145 0.480117
vt 0.191930 0.507265
vt 0.376682 0.639298
vt 0.147972 0.635740
vt 0.499049 0.451771
vt 0.879779 0.000140
vt 0.999860 0.189071
vt 0.870561 0.223821
vt 0.794363 0.158262
vt 0.651111 0.000967
vt 0.693514 0.129911
vt 0.749935 0.242114
vt 0.659460 0.190483
vt 0.842429 0.290726
vt 0.706143 0.328975
vt 0.789697 0.379474
vt 0.723576 0.457222
vt 0.661524 0.416909
vt 0.616760 0.286689
vt 0.592300 0.384831
vt 0.004470 0.094266
vt 0.052697 0.093173
vt 0.055292 0.106558
vt 0.000140 0.108245
vt 0.164089 0.099395
vt 0.116759 0.125745
vt 0.108745 0.109283
vt 0.151871 0.082802
vt 0.592022 0.554106
vt 0.549288 0.542065
vt 0.551784 0.528735
vt 0.596647 0.544805
vt 0.067287 0.146878
vt 0.061651 0.126761
vt 0.028794 0.518018
vt 0.530589 0.117219
vt 0.499329 0.272536
vt 0.515254 0.393323
vt 0.000140 0.362245
vt 0.018327 0.241779
vt 0.093920 0.251151
vt 0.976228 0.352736
vt 0.477381 0.287799
vt 0.370089 0.172762
vt 0.225965 0.180441
vt 0.263880 0.114882
vt 0.868046 0.467053
vt 0.761480 0.524402
vt 0.070622 0.154153
vt 0.120772 0.133731
vt 0.163479 0.219935
vt 0.167158 0.105991
vt 0.663871 0.530746
vt 0.617815 0.502401
vt 0.567934 0.481348
vt 0.021443 0.164591
vt 0.520109 0.470513
vt 0.701442 0.562542
vt 0.205956 0.073915
vt 0.627100 0.580934
vt 0.636346 0.571177
vt 0.203717 0.068078
vt 0.194081 0.046981
vt 0.095618 0.081612
vt 0.131111 0.055283
vt 0.140070 0.065389
vt 0.100133 0.090998
vt 0.660728 0.537322
vt 0.698322 0.567967
vt 0.688265 0.588888
vt 0.648406 0.553874
vt 0.564489 0.488580
vt 0.517724 0.476688
vt 0.018315 0.158742
vt 0.613698 0.510342
vt 0.558429 0.508581
vt 0.605490 0.526653
vt 0.506539 0.497508
vt 0.499329 0.526848
vt 0.175332 0.023899
vt 0.669128 0.611483
vt 0.007247 0.137817
vt 0.503486 0.540953
vt 0.655308 0.616267
vt 0.161665 0.018956
vt 0.545864 0.577579
vt 0.508078 0.585183
vt 0.106288 0.035376
vt 0.124235 0.000140
vt 0.051356 0.058398
vt 0.081111 0.053499
vt 0.602200 0.602428
vt 0.576541 0.583116
vt 0.012547 0.050063
vt 0.619170 0.636913
vt 0.554790 0.631003
vt 0.059732 0.004463
s 1
f 17/1/1 6/2/2 3/3/3 18/4/4
f 19/5/5 5/6/6 2/7/7 20/8/8
f 21/9/9 22/10/10 8/11/11 4/12/12
f 23/13/13 24/14/14 28/15/15 1/16/16
f 17/1/1 21/9/9 4/12/12 6/2/2
f 19/17/5 23/13/13 1/16/16 25/18/17
f 20/8/8 2/7/7 8/19/11 22/20/10
f 18/4/4 3/3/3 7/21/18 24/22/14
f 8/19/11 2/7/7 10/23/19 16/24/20
f 7/21/18 3/3/3 11/25/21 15/26/22
f 3/3/3 6/2/2 14/27/23 11/25/21
f 2/7/7 5/6/6 13/28/24 10/23/19
f 4/12/12 8/11/11 29/29/25 12/30/26
f 1/16/16 28/15/15 30/31/27 9/32/28
f 6/2/2 4/12/12 12/30/26 26/33/29
f 25/18/17 1/16/16 9/32/28 27/34/30
f 72/35/31 76/36/32 51/37/33 39/38/34
f 76/36/32 73/39/35 41/40/36 51/37/33
f 51/37/33 41/40/36 34/41/37 42/42/38
f 39/38/34 51/37/33 42/42/38 33/43/39
f 33/43/39 42/42/38 52/44/40 43/45/41
f 42/42/38 34/41/37 44/46/42 52/44/40
f 52/47/40 44/48/42 38/49/43 45/50/44
f 43/51/41 52/47/40 45/50/44 37/52/45
f 37/52/45 45/50/44 53/53/46 46/54/47
f 45/50/44 38/49/43 47/55/48 53/53/46
f 77/56/49 75/57/50 59/58/51 60/59/52
f 74/60/53 77/56/49 60/59/52 61/61/54
f 70/62/55 64/63/56 100/64/57 88/65/58
f 32/66/59 40/67/60 97/68/61 94/69/62
f 69/70/63 66/71/64 91/72/65 103/73/66
f 40/67/60 31/74/67 96/75/68 97/68/61
f 33/43/39 43/45/41 54/76/69 39/38/34
f 43/51/41 37/52/45 46/54/47 54/77/69
f 78/78/70 74/60/53 61/61/54 62/79/71
f 72/35/31 78/80/70 62/81/71 56/82/72
f 38/49/43 44/48/42 55/83/73 47/55/48
f 44/46/42 34/41/37 41/40/36 55/84/73
f 79/85/74 73/39/35 58/86/75 63/87/76
f 75/57/50 79/88/74 63/89/76 59/58/51
f 80/90/77 81/91/78 57/92/79 56/82/72
f 81/91/78 82/93/80 58/86/75 57/92/79
f 83/94/81 84/95/82 60/59/52 59/58/51
f 84/95/82 85/96/83 61/61/54 60/59/52
f 86/97/84 80/90/77 56/82/72 62/81/71
f 85/96/83 86/98/84 62/79/71 61/61/54
f 87/99/85 83/94/81 59/58/51 63/89/76
f 82/93/80 87/100/85 63/87/76 58/86/75
f 67/101/86 69/70/63 103/73/66 102/102/87
f 50/103/88 32/66/59 94/69/62 93/104/89
f 68/105/90 65/106/91 95/107/92 101/108/93
f 36/109/94 50/110/88 93/111/89 98/112/95
f 47/55/48 55/83/73 79/88/74 75/57/50
f 55/84/73 41/40/36 73/39/35 79/85/74
f 39/38/34 54/76/69 78/80/70 72/35/31
f 54/77/69 46/54/47 74/60/53 78/78/70
f 46/54/47 53/53/46 77/56/49 74/60/53
f 53/53/46 47/55/48 75/57/50 77/56/49
f 57/92/79 58/86/75 73/39/35 76/36/32
f 56/82/72 57/92/79 76/36/32 72/35/31
f 32/66/59 50/103/88 87/100/85 82/93/80
f 50/110/88 36/109/94 83/94/81 87/99/85
f 35/113/96 49/114/97 86/98/84 85/96/83
f 49/115/97 31/74/67 80/90/77 86/97/84
f 48/116/98 35/113/96 85/96/83 84/95/82
f 36/109/94 48/116/98 84/95/82 83/94/81
f 40/67/60 32/66/59 82/93/80 81/91/78
f 31/74/67 40/67/60 81/91/78 80/90/77
f 94/69/62 97/68/61 101/108/93 95/107/92
f 90/117/99 99/118/100 103/73/66 91/72/65
f 89/119/101 90/117/99 91/72/65 88/120/58
f 93/104/89 94/69/62 95/107/92 92/121/102
f 98/112/95 93/111/89 92/122/102 102/102/87
f 96/75/68 89/123/101 88/65/58 100/64/57
f 99/118/100 98/112/95 102/102/87 103/73/66
f 97/68/61 96/75/68 100/64/57 101/108/93
f 48/116/98 36/109/94 98/112/95 99/118/100
f 66/71/64 70/124/55 88/120/58 91/72/65
f 35/113/96 48/116/98 99/118/100 90/117/99
f 71/125/103 67/101/86 102/102/87 92/122/102
f 31/74/67 49/115/97 89/123/101 96/75/68
f 65/106/91 71/126/103 92/121/102 95/107/92
f 49/114/97 35/113/96 90/117/99 89/119/101
f 64/63/56 68/105/90 101/108/93 100/64/57
f 66/71/64 105/127/104 111/128/105 70/124/55
f 65/106/91 107/129/106 109/130/107 71/126/103
f 68/105/90 64/63/56 110/131/108 106/132/109
f 69/70/63 67/101/86 108/133/110 104/134/111
f 64/63/56 70/62/55 111/135/105 110/131/108
f 67/101/86 71/125/103 109/136/107 108/133/110
f 68/105/90 106/132/109 107/129/106 65/106/91
f 69/70/63 104/134/111 105/127/104 66/71/64
f 105/127/104 104/134/111 112/137/112 111/128/105
f 111/135/105 112/138/112 106/132/109 110/131/108
f 112/137/112 104/134/111 108/133/110 109/136/107
f 106/132/109 112/138/112 109/130/107 107/129/106
